<svg width="114.3mm" height="114.3mm" version="1.1" viewBox="0 0 114.3 114.3" xmlns="http://www.w3.org/2000/svg">
	<rect x="-1.4211e-15" y="74.832" width="114.3" height="39.468" fill="#fb8500" stop-color="#000000" stroke-width=".779" style="-inkscape-stroke:none;paint-order:markers stroke fill"/>
	<g transform="translate(0 -8.241)">
		<g fill="#fff" stroke-width=".779" style="paint-order:markers stroke fill" aria-label="STAGING">
			<path d="m31.388 97.729q0 1.0668-0.52493 1.8627-0.52493 0.79587-1.524 1.2361-0.98213 0.42333-2.4045 0.42333-0.62653 0-1.2361-0.0847-0.59266-0.0847-1.1515-0.23707-0.54187-0.16933-1.0329-0.4064v-2.3876q0.8636 0.37253 1.778 0.69426 0.93133 0.3048 1.8457 0.3048 0.62653 0 0.99906-0.16933 0.38947-0.16933 0.5588-0.4572 0.18627-0.28787 0.18627-0.6604 0-0.4572-0.32173-0.77893-0.3048-0.32173-0.82973-0.59267-0.52493-0.28787-1.2023-0.6096-0.42333-0.2032-0.9144-0.47413-0.49107-0.28787-0.94826-0.69426-0.44027-0.42333-0.72813-1.016-0.28787-0.59267-0.28787-1.4224 0-1.0837 0.49106-1.8457 0.508-0.77893 1.4224-1.1853 0.93133-0.4064 2.1844-0.4064 0.94826 0 1.7949 0.22013 0.8636 0.22013 1.7949 0.62653l-0.82973 1.9981q-0.82973-0.33867-1.4901-0.52493-0.6604-0.18627-1.3547-0.18627-0.47413 0-0.8128 0.1524t-0.52493 0.42333q-0.16933 0.27093-0.16933 0.64346 0 0.42333 0.254 0.72813 0.254 0.28787 0.762 0.5588t1.27 0.64346q0.93133 0.44027 1.5748 0.9144 0.6604 0.47413 1.016 1.1176t0.3556 1.5917z"/>
			<path d="m37.452 101.08h-2.5569v-9.9568h-3.2851v-2.1336h9.127v2.1336h-3.2851z"/>
			<path d="m48.021 101.08-0.88053-2.8787h-4.4027l-0.88053 2.8787h-2.7601l4.2672-12.141h3.1327l4.2841 12.141zm-2.3707-7.8401q-0.08467-0.28787-0.22013-0.72813-0.13547-0.44027-0.27093-0.89746-0.13547-0.4572-0.22013-0.79586-0.08467 0.33867-0.23707 0.84666-0.13547 0.49107-0.27093 0.94826-0.11853 0.44027-0.18627 0.62653l-0.8636 2.8109h3.1496z"/>
			<path d="m55.761 94.291h4.7921v6.2653q-0.94826 0.32173-1.9812 0.508-1.016 0.18626-2.3199 0.18626-1.7949 0-3.0649-0.71119-1.2531-0.7112-1.9135-2.0997-0.64347-1.3885-0.64347-3.4205 0-1.8965 0.72813-3.2851 0.74507-1.3885 2.1505-2.1505 1.4055-0.762 3.4375-0.762 0.9652 0 1.8965 0.2032 0.93133 0.2032 1.6933 0.54187l-0.84666 2.0489q-0.5588-0.28787-1.27-0.47413-0.7112-0.18627-1.4901-0.18627-1.1176 0-1.9473 0.508-0.8128 0.508-1.27 1.4393-0.44027 0.9144-0.44027 2.1675 0 1.1853 0.32173 2.0997t1.016 1.4393q0.69426 0.508 1.8119 0.508 0.37253 0 0.64346-0.01693 0.28787-0.03387 0.52493-0.06773 0.23707-0.0508 0.4572-0.08467v-2.5231h-2.286z"/>
			<path d="m67.16 101.08h-5.5033v-1.4563l1.4732-0.67733v-7.8232l-1.4732-0.67733v-1.4563h5.5033v1.4563l-1.4732 0.67733v7.8232l1.4732 0.67733z"/>
			<path d="m79.151 101.08h-3.2512l-5.2663-9.144h-0.06773q0.01693 0.42333 0.03387 0.8636 0.01693 0.42333 0.03387 0.8636 0.03387 0.42333 0.0508 0.8636 0.01693 0.42333 0.03387 0.8636v5.6896h-2.286v-12.09h3.2343l5.2493 9.0593h0.0508q-0.01693-0.42333-0.03387-0.82973-0.01693-0.42333-0.03387-0.82973 0-0.42333-0.01693-0.82973-0.01693-0.42333-0.03387-0.84666v-5.7235h2.3029z"/>
			<path d="m85.994 94.291h4.7921v6.2653q-0.94826 0.32173-1.9812 0.508-1.016 0.18626-2.3199 0.18626-1.7949 0-3.0649-0.71119-1.2531-0.7112-1.9135-2.0997-0.64347-1.3885-0.64347-3.4205 0-1.8965 0.72813-3.2851 0.74507-1.3885 2.1505-2.1505 1.4055-0.762 3.4375-0.762 0.9652 0 1.8965 0.2032 0.93133 0.2032 1.6933 0.54187l-0.84666 2.0489q-0.5588-0.28787-1.27-0.47413-0.7112-0.18627-1.4901-0.18627-1.1176 0-1.9473 0.508-0.8128 0.508-1.27 1.4393-0.44027 0.9144-0.44027 2.1675 0 1.1853 0.32173 2.0997t1.016 1.4393q0.69426 0.508 1.8119 0.508 0.37253 0 0.64346-0.01693 0.28787-0.03387 0.52493-0.06773 0.23707-0.0508 0.4572-0.08467v-2.5231h-2.286z"/>
		</g>
	</g>
</svg>
